<?xml version="1.0" encoding="UTF-8" standalone="no"?>
<!-- Generator: Adobe Illustrator 12.0.1, SVG Export Plug-In  -->

<svg
   xmlns:dc="http://purl.org/dc/elements/1.1/"
   xmlns:cc="http://creativecommons.org/ns#"
   xmlns:rdf="http://www.w3.org/1999/02/22-rdf-syntax-ns#"
   xmlns:svg="http://www.w3.org/2000/svg"
   xmlns="http://www.w3.org/2000/svg"
   xmlns:sodipodi="http://sodipodi.sourceforge.net/DTD/sodipodi-0.dtd"
   xmlns:inkscape="http://www.inkscape.org/namespaces/inkscape"
   version="1.1"
   width="270"
   height="270"
   viewBox="0 0 270 270"
   enable-background="new 0 0 288 288"
   xml:space="preserve"
   id="svg2"
   inkscape:version="0.48.1 "
   sodipodi:docname="AJAX.svg"><metadata
   id="metadata165"><rdf:RDF><cc:Work
       rdf:about=""><dc:format>image/svg+xml</dc:format><dc:type
         rdf:resource="http://purl.org/dc/dcmitype/StillImage" /></cc:Work></rdf:RDF></metadata><sodipodi:namedview
   pagecolor="#ffffff"
   bordercolor="#666666"
   borderopacity="1"
   objecttolerance="10"
   gridtolerance="10"
   guidetolerance="10"
   inkscape:pageopacity="0"
   inkscape:pageshadow="2"
   inkscape:window-width="1280"
   inkscape:window-height="1004"
   id="namedview163"
   showgrid="false"
   fit-margin-top="0"
   fit-margin-left="0"
   fit-margin-right="0"
   fit-margin-bottom="0"
   inkscape:zoom="1.8357882"
   inkscape:cx="172.75852"
   inkscape:cy="118.11197"
   inkscape:window-x="-8"
   inkscape:window-y="-8"
   inkscape:window-maximized="1"
   inkscape:current-layer="svg2" />
<defs
   id="defs4">
</defs>






<path
   d="m 67.213,123.421 -0.144,0.067 c 0.008,0.038 0.019,0.075 0.027,0.112 0.039,-0.06 0.07,-0.123 0.117,-0.179 z"
   id="path18"
   inkscape:connector-curvature="0"
   style="fill:#ffffff" />


<path
   d="m 214.854,39.459 c 0.639,-0.813 0.639,-1.569 -0.402,-2.399 l -3.134,-2.509 -2.354,2.954 3.167,2.534 c 0.541,0.444 1.969,0.637 2.723,-0.58 z"
   id="path24"
   inkscape:connector-curvature="0"
   style="fill:#ffffff" />
<polygon
   points="209.404,37.275 204.962,41.11 208.112,43.056 "
   id="polygon26"
   style="fill:#ffffff"
   transform="translate(-9,-9)" />
<path
   d="m 61.91,126.551 c -10e-4,0.014 -0.002,0.029 -0.004,0.043 0.002,0.001 0.005,0.002 0.007,0.003 0.002,-0.016 -0.006,-0.029 -0.003,-0.046 z"
   id="path28"
   inkscape:connector-curvature="0"
   style="fill:#ffffff" />

<path
   d="m 220.648,54.94 c 1.288,0.075 2.73,-0.68 3.873,-1.754 1.107,-1.099 1.9,-2.534 1.866,-3.817 -0.034,-1.015 -0.499,-1.896 -1.162,-2.576 -0.659,-0.688 -1.527,-1.175 -2.551,-1.217 -1.271,-0.076 -2.731,0.671 -3.86,1.745 -1.107,1.107 -1.896,2.534 -1.862,3.817 0.024,1.024 0.491,1.905 1.157,2.584 0.656,0.673 1.516,1.167 2.539,1.218 z"
   id="path32"
   inkscape:connector-curvature="0"
   style="fill:#ffffff" />


<path
   d="m 179.171,181.449 0.015,-0.029 c -0.004,-0.002 -0.009,-0.004 -0.013,-0.006 -0.004,0.013 0.003,0.024 -0.002,0.035 z"
   id="path38"
   style="fill:#00529f;fill-opacity:1;stroke:none"
   inkscape:connector-curvature="0" />







<path
   d="m 58.671,131.904 c -1.703,-0.378 -2.853,0.579 -4.279,1.795 l -1.553,1.016 c 0,0 -1.911,0.884 -2.329,1.018 -0.627,1.483 -1.914,1.892 -3.05,2.254 0,0 -2.063,1.099 -2.626,1.393 l -1.804,-0.009 c 0,0 -3.575,0.403 -3.44,0.327 l -1.2,0.789 c 0,0 -4.506,3.75 -4.38,3.146 l -0.261,2.081 -0.234,0.881 -0.117,0.168 c -1.326,1.778 -3.416,2.776 -5.337,3.481 0,0 -0.252,1.065 -0.285,1.116 0,0.159 -0.102,2.182 -0.102,2.182 0,0 -0.117,0.897 -0.486,1.082 1.729,-0.051 22.706,-0.722 22.773,-0.722 0.319,0.009 0.646,0.017 0.957,0.017 3.775,0 6.863,-0.621 9.339,-1.896 l 1.737,-0.688 c 0.889,-0.42 1.896,-0.906 2.92,-0.906 0.461,0 0.925,0.12 1.379,0.375 0.033,-0.447 0.084,-1.151 0.576,-1.34 0.495,-0.722 1.2,-1.099 2.014,-1.099 0.185,0 0.378,0.017 0.579,0.059 l 0.855,-0.177 0.185,0.21 c 0.411,-0.461 0.924,-1.023 1.611,-1.023 0.017,0 0.051,0 0.067,0 0.638,0 0.764,-0.193 1.074,-1.107 0,0 1.561,-2.148 1.678,-2.19 0.285,-0.092 0.554,-0.134 0.789,-0.134 1.368,0 1.88,1.385 2.249,2.727 0,0 2.383,-0.025 2.785,-0.117 l 9.398,-0.109 c 0,0 6.301,-0.073 8.84,-0.075 0.453,-15.046 -1.58,-21.903 -3.94,-29.786 -0.963,-3.219 -2.003,-6.701 -2.921,-11.003 -0.187,0.021 -0.401,0.043 -0.662,0.063 -0.227,0.067 -0.311,0.176 -0.277,1.149 0,0 -0.159,1.51 -0.318,1.502 -0.109,0.302 -0.101,0.311 0.285,0.612 l 0.906,0.68 -0.066,0.443 c 0,0 -0.251,1.645 -0.704,2.391 0,0 -3.139,0.285 -3.818,0.067 -2.072,0.864 -2.979,3.08 -3.868,5.228 0,0 -0.554,1.309 -0.99,1.904 -0.57,0.747 -1.527,1.997 -3.457,1.485 0,0 -1.829,-1.854 -2.081,-1.141 0,0 -1.091,0.394 -1.712,0.663 0,0 -1.149,0.445 -1.1,0.437 -0.386,0.092 -0.596,0.612 -0.612,0.906 0.135,0.672 -0.276,1.149 -0.897,2.022 l -2.861,1.351 c 0,0 -1.275,0.445 -1.628,0.504 -1.4,-0.111 -1.755,-1.41 -1.174,-2.305 -0.009,-0.038 -0.019,-0.075 -0.027,-0.112 l -1.76,0.815 -0.445,0.939 -0.084,0.025 c 0.018,0.654 0.051,2.03 -1.409,2.315 0,0 -1.534,-0.205 -1.457,-0.985 -0.002,-0.001 -0.005,-0.002 -0.007,-0.003 -0.138,1.623 -0.393,4.302 -3.238,5.309 z"
   id="path54"
   inkscape:connector-curvature="0"
   style="fill:#00529f" />
<path
   d="m 188.422,147.351 c -10.225,0 -21.464,3.474 -32.62,10.345 -2.568,1.582 -5.442,4.183 -8.655,7.296 l 9.39,8.563 c 0,0 8.836,7.962 8.84,8.038 0.038,0.008 0.067,0.024 0.101,0.024 0.093,0 0.206,-0.066 0.517,-0.302 l 0.989,-0.563 2.048,-0.847 c 0,0 0.911,-0.537 1.603,-0.596 0.383,0 1.264,0 1.087,0.453 0,0 1.876,-0.655 2.11,-0.798 1.217,-0.461 2.002,0.336 2.471,0.814 0.5,0.503 0.613,0.537 1.083,0.419 0,0 2.022,0.496 1.789,1.216 0.004,0.002 0.009,0.004 0.013,0.006 l 1.803,-3.486 c 0,0 1.107,-1.889 1.363,-2.534 0,0 0.844,-1.443 0.499,-0.948 0,0 1.606,-4.917 1.606,-4.967 0.005,0 3.482,-3.877 3.482,-3.877 0,0 1.536,-1.031 1.779,-1.174 l 2.731,-1.771 c 0,0 4.011,-2.215 3.692,-2.081 0,0 0.242,-0.545 0.448,-1.016 2.198,-2.458 5.216,-2.458 8.626,-2.567 0.365,-0.545 1.037,-1.568 2.207,-1.133 0,0 1.926,0.445 1.754,0.453 l 4.278,0.138 c -0.752,-0.672 -1.528,-1.322 -2.349,-1.933 -6.448,-4.79 -14.218,-7.172 -22.685,-7.172 z"
   id="path56"
   inkscape:connector-curvature="0"
   style="fill:#00529f" />
<path
   d="m 222.394,140.235 c 1.186,1.677 2.238,3.331 3.192,4.964 l 3.609,-3.596 7.594,-3.835 c 0,0 1.774,-1.149 2.248,-1.267 0.91,0.075 1.821,-0.428 2.052,-0.428 l -0.239,-3.919 c 0,0 -1.133,-7.24 -1.888,-7.845 0,0 -1.569,-0.956 -1.733,-1.426 0,-2.618 -1.396,-4.54 -2.877,-6.578 0,0 -2.854,-5.387 -2.871,-5.555 l -1.166,-3.272 c 0,0 -1.242,-4.548 -1.351,-5.244 0,-0.311 -0.188,-0.78 -1.142,-1.191 l -12.15,0.554 c 0,0 -10.786,0.461 -11.412,0.822 -0.133,0.168 -0.733,0.931 -0.733,0.931 l -46.222,1.397 c 4.659,1.607 9.26,3.02 13.79,4.401 19.212,5.85 37.356,11.371 51.299,31.087 z"
   id="path58"
   inkscape:connector-curvature="0"
   style="fill:#00529f" />

<path
   d="m 10.12,153.954 c 1.107,0.545 2.954,0.981 5.438,0.68 1.46,-0.177 2.551,-0.638 3.104,-1.007 2.483,-1.578 2.971,-3.499 2.794,-4.976 l -0.805,-6.671 -14.315,1.721 0.771,6.469 c 0.177,1.493 1.352,2.986 3.013,3.784 z m 8.433,-8.734 0.319,2.668 c 0.126,1.049 0,1.854 -1.007,2.719 -0.672,0.604 -1.847,0.956 -3.029,1.107 -1.184,0.167 -2.392,0.108 -3.113,-0.151 -1.502,-0.479 -2.131,-1.485 -2.291,-2.853 l -0.302,-2.357 9.423,-1.133 z"
   id="path62"
   style="fill:#00529f;fill-opacity:1;stroke:none"
   inkscape:connector-curvature="0" />
<polygon
   points="28.148,175.514 26.546,168.793 29.743,168.038 31.48,175.305 33.889,174.726 31.464,164.564 17.425,167.921 19.926,178.417 22.342,177.83 20.521,170.229 24.154,169.364 25.749,176.085 "
   id="polygon64"
   style="fill:#00529f;fill-opacity:1;stroke:none"
   transform="translate(-9,-9)" />
<path
   d="m 18.973,177.002 c 0.462,1.628 1.679,2.794 3.818,3.004 1.124,0.075 3.07,-0.47 4.12,-1.46 1.871,-1.721 1.115,-3.801 0.78,-4.774 l -2.182,-6.032 -13.577,4.892 0.998,2.785 4.851,-1.736 1.192,3.321 z m 5.211,-5.639 1.074,3.013 c 0.252,0.68 0.369,1.502 -0.403,2.131 -0.528,0.453 -1.46,0.596 -1.938,0.57 -0.495,-0.033 -1.377,-0.243 -1.67,-1.115 l -1.142,-3.13 4.079,-1.469 z"
   id="path66"
   style="fill:#00529f;fill-opacity:1;stroke:none"
   inkscape:connector-curvature="0" />
<path
   d="m 31.668,183.16 -15.162,1.905 1.343,2.718 3.046,-0.386 2.374,4.791 -2.147,2.164 1.343,2.719 10.724,-10.84 -1.521,-3.071 z m -6.494,7.291 -1.653,-3.322 5.807,-0.881 -4.154,4.203 z"
   id="path68"
   style="fill:#00529f;fill-opacity:1;stroke:none"
   inkscape:connector-curvature="0" />
<path
   d="m 35.066,203.834 c 1.016,0.495 1.746,0.772 2.979,0.386 1.233,-0.386 1.938,-1.183 2.357,-1.711 1.074,-1.191 0.839,-2.794 0.101,-4.036 l -4.396,-6.704 -12.066,7.912 1.628,2.476 4.766,-3.121 1.922,2.92 c 0.554,0.855 0.546,1.711 -0.243,2.273 -0.906,0.554 -1.854,1.175 -2.434,1.594 -0.378,0.294 -0.671,0.63 -0.897,1.074 l 1.745,2.66 0.437,-0.294 c -0.017,-0.369 0,-0.671 0.688,-1.116 0.604,-0.402 2.165,-1.477 2.627,-1.871 0.996,-0.856 0.779,-1.846 0.786,-2.442 z m -0.335,-2.761 -2.232,-3.381 3.163,-2.081 2.207,3.356 c 0.722,1.107 0.487,1.838 -0.369,2.399 -1.091,0.933 -2.392,0.295 -2.769,-0.293 z"
   id="path70"
   style="fill:#00529f;fill-opacity:1;stroke:none"
   inkscape:connector-curvature="0" />
<polygon
   points="50.033,212.683 52.836,216.056 43.605,223.657 45.493,225.948 54.724,218.347 57.4,221.602 59.297,220.024 51.954,211.114 "
   id="polygon72"
   style="fill:#00529f;fill-opacity:1;stroke:none"
   transform="translate(-9,-9)" />
<polygon
   points="59.909,220.771 49.949,231.192 52.08,233.248 60.145,224.807 53.943,235.026 56.074,237.082 66.026,230.412 57.945,238.853 60.094,240.899 70.054,230.471 66.924,227.492 57.325,233.634 63.03,223.758 "
   id="polygon74"
   style="fill:#00529f;fill-opacity:1;stroke:none"
   transform="translate(-9,-9)" />
<polygon
   points="70.649,238.08 72.604,235.446 78.613,239.927 80.073,237.93 71.698,231.704 63.09,243.266 71.749,249.701 73.226,247.721 66.94,243.056 69.173,240.069 74.703,244.188 76.188,242.209 "
   id="polygon76"
   style="fill:#00529f;fill-opacity:1;stroke:none"
   transform="translate(-9,-9)" />
<polygon
   points="81.684,239.012 74.451,251.497 77.019,252.981 82.062,244.289 82.07,255.91 84.604,257.378 91.837,244.894 89.27,243.408 84.302,251.983 84.218,240.48 "
   id="polygon78"
   style="fill:#00529f;fill-opacity:1;stroke:none"
   transform="translate(-9,-9)" />
<polygon
   points="93.558,261.473 98.365,250.523 102.226,252.227 103.224,249.97 92.643,245.296 91.652,247.562 95.655,249.332 90.83,260.265 "
   id="polygon80"
   style="fill:#00529f;fill-opacity:1;stroke:none"
   transform="translate(-9,-9)" />
<path
   d="m 106.383,244.427 c -1.779,-0.462 -3.617,-0.361 -5.11,0.554 -1.637,1.023 -2.962,2.92 -3.508,5.025 -0.545,2.114 -0.318,4.413 0.63,6.108 0.855,1.51 2.416,2.492 4.195,2.953 1.779,0.462 3.634,0.361 5.118,-0.537 1.646,-1.023 2.963,-2.937 3.508,-5.034 0.546,-2.105 0.319,-4.422 -0.629,-6.108 -0.848,-1.519 -2.417,-2.5 -4.204,-2.961 z m 2.072,8.356 c -0.402,1.51 -1.25,2.903 -2.392,3.499 -0.906,0.486 -1.896,0.52 -2.803,0.276 -0.931,-0.243 -1.778,-0.747 -2.341,-1.594 -0.696,-1.083 -0.771,-2.728 -0.395,-4.246 0.411,-1.493 1.275,-2.895 2.4,-3.507 0.897,-0.47 1.888,-0.503 2.819,-0.277 0.914,0.244 1.762,0.747 2.315,1.62 0.7,1.074 0.775,2.702 0.397,4.229 z"
   id="path82"
   style="fill:#00529f;fill-opacity:1;stroke:none"
   inkscape:connector-curvature="0" />
<polygon
   points="131.687,265.005 132.014,262.555 125.771,261.683 126.224,258.427 133.323,259.408 133.658,256.959 123.623,255.565 121.643,269.854 124.579,270.266 125.427,264.133 "
   id="polygon84"
   style="fill:#00529f;fill-opacity:1;stroke:none"
   transform="translate(-9,-9)" />
<polygon
   points="143.535,259.77 143.627,271.726 146.598,271.7 146.506,259.753 150.717,259.719 150.701,257.244 139.146,257.328 139.163,259.803 "
   id="polygon86"
   style="fill:#00529f;fill-opacity:1;stroke:none"
   transform="translate(-9,-9)" />
<path
   d="m 155.609,259.47 c -0.093,-0.721 -0.349,-2.609 -0.496,-3.188 -0.311,-1.268 -1.3,-1.519 -1.833,-1.796 0.906,-0.688 1.481,-1.208 1.687,-2.492 0.215,-1.275 -0.205,-2.265 -0.482,-2.869 -0.583,-1.502 -2.123,-1.997 -3.566,-1.896 l -7.95,0.94 1.67,14.321 2.949,-0.344 -0.663,-5.663 3.453,-0.395 c 1.023,-0.134 1.796,0.269 1.943,1.217 0.079,1.049 0.213,2.182 0.344,2.886 0.084,0.479 0.256,0.898 0.541,1.292 l 3.163,-0.369 -0.071,-0.528 c -0.337,-0.159 -0.584,-0.311 -0.689,-1.116 z m -4.947,-5.907 -4.031,0.461 -0.428,-3.75 3.985,-0.47 c 1.313,-0.151 1.858,0.386 1.976,1.401 0.344,1.394 -0.813,2.274 -1.502,2.358 z"
   id="path88"
   style="fill:#00529f;fill-opacity:1;stroke:none"
   inkscape:connector-curvature="0" />
<path
   d="m 160.346,245.5 -1.523,15.212 2.95,-0.705 0.302,-3.054 5.207,-1.242 1.623,2.576 2.954,-0.713 -8.182,-12.871 -3.331,0.797 z m 2.06,8.827 0.424,-5.849 3.172,5.001 -3.596,0.848 z"
   id="path90"
   style="fill:#00529f;fill-opacity:1;stroke:none"
   inkscape:connector-curvature="0" />
<polygon
   points="178.504,252.193 183.522,265.701 186.316,264.678 182.801,255.247 191.779,262.639 194.527,261.615 189.501,248.099 186.729,249.131 190.172,258.427 181.253,251.161 "
   id="polygon92"
   style="fill:#00529f;fill-opacity:1;stroke:none"
   transform="translate(-9,-9)" />
<path
   d="m 194.846,240.34 c -1.238,-0.411 -2.916,0.042 -3.688,0.286 -0.533,0.15 -3.172,1.007 -3.625,0.839 -0.705,0.066 -1.092,0.042 -1.469,-0.873 -0.457,-1.107 0.272,-2.03 1.569,-2.668 1.842,-0.881 3.188,-0.378 3.679,0.68 l 2.492,-1.267 c -0.113,-0.471 -0.901,-1.586 -2.01,-2.098 -2.063,-0.957 -4.488,0.209 -5.164,0.562 -3.146,1.603 -3.859,3.868 -3.025,6.017 0.84,2.189 2.501,2.609 4.142,2.391 1.942,-0.293 4.485,-1.586 5.772,-1.133 0.961,0.311 1.352,1.376 1.049,2.207 -0.172,0.479 -0.859,1.166 -1.736,1.628 -0.869,0.495 -1.904,0.78 -2.799,0.478 -0.671,-0.234 -1.057,-0.704 -1.221,-1.04 l -2.572,1.301 c 0.705,1.183 1.909,2.156 3.482,2.399 1.297,0.21 2.975,-0.353 3.617,-0.705 1.418,-0.746 2.828,-1.687 3.558,-2.937 1.074,-1.855 0.214,-5.269 -2.051,-6.067 z"
   id="path94"
   style="fill:#00529f;fill-opacity:1;stroke:none"
   inkscape:connector-curvature="0" />
<path
   d="m 203.77,228.484 c -2.102,-1.409 -3.961,-0.201 -4.824,0.378 l -5.354,3.516 7.912,12.049 2.484,-1.62 -2.828,-4.304 2.962,-1.946 c 1.473,-0.831 2.312,-2.282 2.03,-4.414 -0.179,-1.108 -1.178,-2.87 -2.382,-3.659 z m -1.184,6.125 -2.785,1.821 -2.379,-3.616 2.664,-1.754 c 0.617,-0.395 1.376,-0.713 2.182,-0.101 0.55,0.42 0.919,1.283 1.007,1.745 0.083,0.487 0.083,1.394 -0.689,1.905 z"
   id="path96"
   style="fill:#00529f;fill-opacity:1;stroke:none"
   inkscape:connector-curvature="0" />
<path
   d="m 213.516,219.499 c -1.736,-0.185 -3.436,0.528 -4.838,1.711 -1.409,1.191 -2.399,2.744 -2.525,4.473 -0.13,1.938 0.672,4.119 2.068,5.78 1.41,1.67 3.411,2.819 5.346,3.038 1.736,0.168 3.436,-0.546 4.846,-1.721 1.41,-1.191 2.4,-2.752 2.518,-4.48 0.121,-1.938 -0.672,-4.111 -2.077,-5.78 -1.395,-1.67 -3.413,-2.82 -5.338,-3.021 z m 4.632,8.843 c -0.139,1.016 -0.672,1.838 -1.41,2.45 -0.722,0.612 -1.633,1.007 -2.656,0.965 -1.279,-0.05 -2.656,-0.948 -3.676,-2.131 -0.989,-1.2 -1.636,-2.71 -1.472,-3.978 0.13,-1.023 0.688,-1.837 1.401,-2.458 0.729,-0.612 1.632,-1.016 2.655,-0.965 1.288,0.051 2.665,0.948 3.685,2.123 0.99,1.225 1.637,2.718 1.473,3.994 z"
   id="path98"
   style="fill:#00529f;fill-opacity:1;stroke:none"
   inkscape:connector-curvature="0" />
<path
   d="m 232.24,216.109 c -0.554,-0.479 -1.963,-1.754 -2.449,-2.098 -1.074,-0.772 -1.977,-0.319 -2.568,-0.177 0.248,-1.099 0.34,-1.871 -0.327,-2.986 -0.68,-1.116 -1.628,-1.595 -2.228,-1.88 -1.427,-0.764 -2.912,-0.134 -3.944,0.881 l -5.446,5.865 10.569,9.816 2.01,-2.182 -4.175,-3.867 2.379,-2.56 c 0.696,-0.755 1.531,-0.948 2.27,-0.311 0.738,0.738 1.578,1.519 2.131,1.964 0.37,0.302 0.772,0.512 1.251,0.638 l 2.178,-2.341 -0.399,-0.361 c -0.362,0.102 -0.652,0.153 -1.252,-0.401 z m -7.605,-1.292 -2.766,2.979 -2.77,-2.567 2.732,-2.954 c 0.91,-0.956 1.67,-0.914 2.424,-0.209 1.159,0.838 0.852,2.247 0.38,2.751 z"
   id="path100"
   style="fill:#00529f;fill-opacity:1;stroke:none"
   inkscape:connector-curvature="0" />
<polygon
   points="234.658,217.071 237.259,213.547 246.867,220.679 248.629,218.288 239.029,211.164 241.539,207.792 239.563,206.314 232.665,215.595 "
   id="polygon102"
   style="fill:#00529f;fill-opacity:1;stroke:none"
   transform="translate(-9,-9)" />
<path
   d="m 233.252,192.826 9.914,11.629 1.523,-2.626 -1.985,-2.316 2.698,-4.623 2.991,0.613 1.526,-2.627 -14.939,-3.003 -1.728,2.953 z m 9.649,1.426 -1.862,3.197 -3.928,-4.363 5.79,1.166 z"
   id="path104"
   style="fill:#00529f;fill-opacity:1;stroke:none"
   inkscape:connector-curvature="0" />
<polygon
   points="248.705,195.524 250.483,191.522 261.412,196.381 262.625,193.662 251.695,188.813 253.408,184.953 251.154,183.955 246.455,194.518 "
   id="polygon106"
   style="fill:#00529f;fill-opacity:1;stroke:none"
   transform="translate(-9,-9)" />
<polygon
   points="252.418,180.062 251.41,182.855 264.996,187.738 265.994,184.937 "
   id="polygon108"
   style="fill:#00529f;fill-opacity:1;stroke:none"
   transform="translate(-9,-9)" />
<path
   d="m 254.732,158.006 c -2.105,-0.554 -4.4,-0.344 -6.108,0.613 -1.515,0.847 -2.501,2.407 -2.958,4.187 -0.47,1.778 -0.386,3.624 0.516,5.109 1.016,1.653 2.925,2.971 5.031,3.524 2.102,0.554 4.405,0.344 6.117,-0.596 1.51,-0.856 2.492,-2.425 2.953,-4.204 0.475,-1.778 0.387,-3.624 -0.523,-5.102 -1.012,-1.66 -2.912,-2.977 -5.028,-3.531 z m 3.051,7.979 c -0.248,0.923 -0.756,1.762 -1.615,2.324 -1.091,0.696 -2.715,0.764 -4.233,0.386 -1.498,-0.428 -2.899,-1.283 -3.499,-2.425 -0.482,-0.897 -0.508,-1.879 -0.269,-2.811 0.243,-0.915 0.759,-1.762 1.61,-2.308 1.092,-0.696 2.724,-0.771 4.234,-0.386 1.506,0.42 2.895,1.267 3.507,2.408 0.47,0.908 0.5,1.898 0.265,2.812 z"
   id="path110"
   style="fill:#00529f;fill-opacity:1;stroke:none"
   inkscape:connector-curvature="0" />
<polygon
   points="256.86,163.751 271.159,165.647 271.553,162.702 261.585,161.385 272.325,156.93 272.703,154.026 258.404,152.113 258.002,155.059 267.84,156.367 257.246,160.848 "
   id="polygon112"
   style="fill:#00529f;fill-opacity:1;stroke:none"
   transform="translate(-9,-9)" />
<path
   d="m 16.758,94.769 c 2.098,1.065 3.607,0.277 4.674,-0.99 1.275,-1.502 2.299,-4.153 3.565,-4.682 0.932,-0.411 1.914,0.134 2.249,0.931 0.177,0.479 0.126,1.46 -0.21,2.392 -0.318,0.931 -0.914,1.854 -1.778,2.215 -0.654,0.285 -1.25,0.168 -1.603,0.034 l -1.041,2.693 c 1.31,0.411 2.861,0.327 4.195,-0.537 1.108,-0.713 1.989,-2.24 2.224,-2.928 0.563,-1.51 0.982,-3.146 0.697,-4.581 -0.437,-2.098 -3.356,-4.044 -5.58,-3.138 -1.2,0.521 -2.148,1.98 -2.552,2.668 -0.302,0.47 -1.694,2.87 -2.147,3.046 -0.479,0.52 -0.78,0.755 -1.679,0.319 -1.065,-0.512 -1.141,-1.695 -0.604,-3.021 0.78,-1.896 2.123,-2.417 3.196,-1.955 l 1.007,-2.601 c -0.411,-0.285 -1.72,-0.587 -2.911,-0.235 -2.165,0.663 -3.181,3.155 -3.466,3.868 -1.265,3.288 -0.284,5.453 1.764,6.502 z"
   id="path114"
   style="fill:#00529f;fill-opacity:1;stroke:none"
   inkscape:connector-curvature="0" />
<polygon
   points="32.924,84.286 34.861,80.536 32.663,79.395 27.344,89.665 29.542,90.789 31.547,86.913 42.162,92.425 43.521,89.782 "
   id="polygon116"
   style="fill:#00529f;fill-opacity:1;stroke:none"
   transform="translate(-9,-9)" />
<path
   d="m 38.322,74.17 -1.846,-2.442 2.995,-4.447 2.938,0.797 1.687,-2.517 -14.734,-3.927 -1.914,2.828 9.188,12.225 1.686,-2.517 z m -7.023,-9.204 5.706,1.527 -2.063,3.079 -3.643,-4.606 z"
   id="path118"
   style="fill:#00529f;fill-opacity:1;stroke:none"
   inkscape:connector-curvature="0" />
<polygon
   points="48.925,61.045 51.652,57.832 49.772,56.237 42.296,65.047 44.192,66.65 47.012,63.311 56.125,71.046 58.046,68.772 "
   id="polygon120"
   style="fill:#00529f;fill-opacity:1;stroke:none"
   transform="translate(-9,-9)" />
<polygon
   points="59.683,58 64.684,53.234 62.98,51.447 57.979,56.204 55.705,53.838 61.126,48.669 59.423,46.882 51.854,54.081 61.813,64.536 69.617,57.102 67.906,55.306 62.242,60.693 "
   id="polygon122"
   style="fill:#00529f;fill-opacity:1;stroke:none"
   transform="translate(-9,-9)" />
<path
   d="m 70.335,39.023 c 1.687,0.436 3.465,-0.025 5.034,-0.99 1.569,-0.973 2.77,-2.375 3.155,-4.069 0.402,-1.896 -0.076,-4.162 -1.233,-6.016 -1.142,-1.854 -2.962,-3.289 -4.842,-3.776 -1.695,-0.419 -3.466,0.034 -5.035,1.007 -1.568,0.974 -2.785,2.358 -3.154,4.053 -0.387,1.904 0.075,4.178 1.225,6.024 1.149,1.854 2.961,3.289 4.85,3.767 z m -3.29,-9.422 c 0.261,-0.99 0.923,-1.72 1.737,-2.224 0.813,-0.486 1.762,-0.755 2.761,-0.57 1.275,0.243 2.492,1.317 3.331,2.651 0.814,1.326 1.217,2.903 0.864,4.145 -0.26,0.99 -0.932,1.72 -1.737,2.232 -0.813,0.487 -1.762,0.764 -2.76,0.562 -1.275,-0.243 -2.492,-1.326 -3.332,-2.634 -0.797,-1.343 -1.217,-2.92 -0.864,-4.162 z"
   id="path124"
   style="fill:#00529f;fill-opacity:1;stroke:none"
   inkscape:connector-curvature="0" />
<polygon
   points="96.394,30.504 90.68,33.164 89.303,30.194 95.781,27.157 94.724,24.917 85.553,29.204 91.661,42.268 94.354,41.018 91.729,35.404 97.451,32.745 "
   id="polygon126"
   style="fill:#00529f;fill-opacity:1;stroke:none"
   transform="translate(-9,-9)" />
<polygon
   points="121.844,31.679 118.336,17.692 115.45,18.422 117.866,28.029 109.777,19.84 106.941,20.553 110.466,34.548 113.335,33.818 110.885,24.077 119.008,32.4 "
   id="polygon128"
   style="fill:#00529f;fill-opacity:1;stroke:none"
   transform="translate(-9,-9)" />
<path
   d="m 116.326,20.741 c 1.351,1.099 3.172,1.435 4.992,1.225 1.83,-0.227 3.517,-0.981 4.549,-2.366 1.183,-1.552 1.711,-3.801 1.442,-5.965 -0.251,-2.165 -1.3,-4.229 -2.802,-5.471 -1.352,-1.09 -3.164,-1.435 -4.984,-1.216 -1.83,0.227 -3.517,0.99 -4.557,2.375 -1.175,1.543 -1.703,3.801 -1.443,5.957 0.26,2.163 1.309,4.227 2.803,5.461 z m 0.99,-9.934 c 0.646,-0.78 1.569,-1.175 2.518,-1.284 0.948,-0.101 1.913,0.05 2.743,0.646 1.058,0.755 1.704,2.249 1.905,3.801 0.168,1.552 -0.109,3.163 -0.957,4.137 -0.663,0.78 -1.586,1.166 -2.517,1.284 -0.932,0.109 -1.922,-0.05 -2.744,-0.646 -1.041,-0.747 -1.712,-2.24 -1.905,-3.801 -0.175,-1.553 0.126,-3.164 0.957,-4.137 z"
   id="path130"
   style="fill:#00529f;fill-opacity:1;stroke:none"
   inkscape:connector-curvature="0" />
<path
   d="m 133.05,14.985 3.507,0.017 c 1.023,0.008 1.729,0.495 1.763,1.46 -0.034,1.049 -0.06,2.198 -0.017,2.92 0.033,0.461 0.15,0.897 0.386,1.334 l 3.188,0.017 v -0.528 c -0.303,-0.202 -0.554,-0.378 -0.545,-1.183 -0.018,-0.738 -0.059,-2.643 -0.109,-3.23 -0.16,-1.309 -1.107,-1.678 -1.604,-2.014 0.975,-0.57 1.604,-1.015 1.973,-2.257 0.369,-1.25 0.075,-2.282 -0.126,-2.92 -0.403,-1.561 -1.862,-2.24 -3.306,-2.307 l -8.014,-0.051 -0.084,14.423 2.953,0.017 0.035,-5.698 z m 0.05,-6.251 4.02,0.025 c 1.326,0 1.796,0.613 1.787,1.636 0.168,1.418 -1.082,2.148 -1.771,2.148 l -4.062,-0.034 0.026,-3.775 z"
   id="path132"
   style="fill:#00529f;fill-opacity:1;stroke:none"
   inkscape:connector-curvature="0" />
<polygon
   points="164.533,19.295 164.827,16.836 153.344,15.494 153.059,17.944 157.4,18.456 156,30.32 158.949,30.672 160.351,18.8 "
   id="polygon134"
   style="fill:#00529f;fill-opacity:1;stroke:none"
   transform="translate(-9,-9)" />
<polygon
   points="172.799,33.357 175.686,34.028 178.979,19.983 176.092,19.312 174.854,24.589 169.287,23.28 170.521,18.011 167.634,17.332 164.345,31.369 167.23,32.048 168.725,25.688 174.288,27.005 "
   id="polygon136"
   style="fill:#00529f;fill-opacity:1;stroke:none"
   transform="translate(-9,-9)" />
<path
   d="m 182.368,31.522 c 1.641,0.688 3.386,0.764 4.442,0.495 1.339,-0.319 2.791,-1.477 3.428,-2.803 l -2.571,-1.174 c -0.378,0.52 -1.036,1.821 -3.151,1.485 -0.424,-0.059 -0.843,-0.193 -1.195,-0.377 -0.386,-0.176 -0.688,-0.395 -0.969,-0.696 -0.524,-0.613 -0.852,-1.46 -0.844,-2.609 0.009,-0.982 0.387,-2.031 0.844,-2.945 0.482,-0.915 1.065,-1.686 1.46,-2.072 0.936,-0.923 2.295,-1.368 3.565,-0.898 2.707,1.016 2.477,3.146 2.199,3.91 l 2.58,1.183 c 0.281,-0.663 0.969,-2.4 -0.327,-4.539 -0.852,-1.51 -2.123,-2.224 -3.05,-2.651 -3.411,-1.561 -5.861,-0.353 -7.716,1.753 -0.554,0.638 -1.049,1.494 -1.464,2.383 -0.395,0.856 -0.659,1.745 -0.798,2.425 -0.566,3.078 0.601,5.88 3.567,7.13 z"
   id="path138"
   style="fill:#00529f;fill-opacity:1;stroke:none"
   inkscape:connector-curvature="0" />
<path
   d="m 191.494,35.659 2.369,-1.921 4.553,2.802 -0.667,2.97 2.567,1.586 3.361,-14.868 -2.92,-1.795 -11.84,9.649 2.577,1.577 z m 8.91,-7.384 -1.292,5.781 -3.15,-1.946 4.442,-3.835 z"
   id="path140"
   style="fill:#00529f;fill-opacity:1;stroke:none"
   inkscape:connector-curvature="0" />
<path
   d="m 203.866,43.898 3.558,-4.447 2.715,2.173 c 0.805,0.638 1.065,1.451 0.49,2.231 -0.688,0.789 -1.393,1.695 -1.813,2.274 -0.268,0.395 -0.439,0.814 -0.532,1.292 l 2.492,1.989 0.335,-0.41 c -0.129,-0.361 -0.201,-0.646 0.299,-1.267 0.439,-0.596 1.598,-2.106 1.908,-2.618 0.697,-1.116 0.181,-1.989 -0.008,-2.559 1.124,0.159 1.896,0.193 2.953,-0.554 1.058,-0.747 1.461,-1.745 1.712,-2.366 0.642,-1.477 -0.088,-2.92 -1.179,-3.868 l -6.256,-5.001 -8.995,11.277 2.321,1.854 z m 7.451,-9.347 3.134,2.509 c 1.041,0.831 1.041,1.586 0.402,2.399 -0.754,1.217 -2.182,1.024 -2.723,0.579 l -3.167,-2.534 2.354,-2.953 z"
   id="path142"
   style="fill:#00529f;fill-opacity:1;stroke:none"
   inkscape:connector-curvature="0" />
<path
   d="m 214.188,50.82 c -0.055,1.736 0.779,3.381 2.06,4.707 1.271,1.317 2.903,2.198 4.64,2.198 1.951,-0.017 4.058,-0.981 5.61,-2.483 1.565,-1.519 2.58,-3.608 2.647,-5.554 0.059,-1.737 -0.781,-3.381 -2.052,-4.707 -1.296,-1.317 -2.916,-2.19 -4.649,-2.19 -1.95,0.017 -4.064,0.973 -5.63,2.483 -1.552,1.519 -2.56,3.6 -2.626,5.546 z m 4.626,-3.499 c 1.129,-1.074 2.589,-1.821 3.86,-1.745 1.023,0.042 1.892,0.528 2.551,1.217 0.663,0.679 1.128,1.561 1.162,2.576 0.034,1.284 -0.759,2.718 -1.866,3.817 -1.143,1.074 -2.585,1.829 -3.873,1.754 -1.023,-0.051 -1.884,-0.545 -2.539,-1.217 -0.666,-0.68 -1.133,-1.561 -1.157,-2.584 -0.034,-1.284 0.755,-2.71 1.862,-3.818 z"
   id="path144"
   style="fill:#00529f;fill-opacity:1;stroke:none"
   inkscape:connector-curvature="0" />
<polygon
   points="244.777,64.275 242.982,61.917 231.536,70.711 237.561,78.547 239.512,77.037 235.316,71.558 "
   id="polygon146"
   style="fill:#00529f;fill-opacity:1;stroke:none"
   transform="translate(-9,-9)" />
<polygon
   points="238.371,79.948 239.998,82.432 252.064,74.512 250.441,72.045 "
   id="polygon148"
   style="fill:#00529f;fill-opacity:1;stroke:none"
   transform="translate(-9,-9)" />
<polygon
   points="246.942,94.673 259.634,87.81 258.225,85.192 249.498,89.908 255.451,80.058 254.05,77.49 241.357,84.345 242.776,86.954 251.607,82.172 245.554,92.098 "
   id="polygon150"
   style="fill:#00529f;fill-opacity:1;stroke:none"
   transform="translate(-9,-9)" />
<path
   d="m 239.646,89.65 3.05,-0.109 1.951,4.967 -2.328,1.972 1.107,2.819 11.626,-9.867 -1.255,-3.188 -15.259,0.587 1.108,2.819 z m 11.554,-0.545 -4.511,3.834 -1.346,-3.448 5.857,-0.386 z"
   id="path152"
   style="fill:#00529f;fill-opacity:1;stroke:none"
   inkscape:connector-curvature="0" />
<path
   d="M 135.005,0 C 60.559,0 0,60.57 0,135.009 0,209.438 60.559,270 135.005,270 209.441,270 270,209.438 270,135.009 270,60.57 209.441,0 135.005,0 z m 0,268.775 C 61.238,268.775 1.209,208.767 1.209,135.008 1.209,61.24 61.238,1.224 135.005,1.224 c 73.766,0 133.778,60.016 133.778,133.784 0,73.76 -60.012,133.767 -133.778,133.767 z"
   id="path154"
   style="fill:#00529f;stroke:none"
   inkscape:connector-curvature="0" />
<path
   enable-background="new    "
   d="m 97.11,116.029 c 2.467,8.256 4.599,15.388 4.003,31.557 -0.722,19.088 -12.386,35.574 -29.729,42.01 -4.557,1.687 -9.139,2.518 -13.552,2.518 -6.612,0 -12.47,-2.425 -17.621,-5.991 6.688,8.785 18.225,15.313 34.168,15.313 6.932,0 14.626,-1.208 23.009,-3.943 20.625,-6.729 34.588,-20.54 44.774,-30.616 4.75,-4.69 8.844,-8.743 12.516,-11.009 11.504,-7.089 23.135,-10.664 33.753,-10.664 8.92,0 17.126,2.518 23.956,7.594 10.204,7.576 15.205,19.868 14.16,32.563 4.93,-10.982 6.734,-26.001 -5.907,-43.881 -13.518,-19.122 -30.501,-24.29 -50.17,-30.272 -10.522,-3.205 -21.401,-6.519 -32.663,-12.283 -16.043,-8.214 -25.617,-26.639 -23.268,-44.796 1.729,-13.475 9.843,-23.065 22.068,-27.545 -0.067,0 -0.135,-0.017 -0.201,-0.017 -11.907,0 -21.717,3.885 -29.218,11.579 -13.979,14.322 -16.69,38.906 -14.567,57.129 1.091,9.386 2.819,15.166 4.489,20.754 z"
   id="path156"
   inkscape:connector-curvature="0"
   style="fill:#ec2027" />
<polygon
   points="24.121,126.657 27.847,124.056 23.299,123.956 21.973,119.609 20.479,123.905 15.923,123.821 19.557,126.565 18.071,130.886 21.806,128.268 25.447,131.012 "
   id="polygon158"
   style="fill:#00529f;fill-opacity:1;stroke:none"
   transform="translate(-9,-9)" />
<polygon
   points="269.133,131.138 267.807,126.783 271.532,124.182 266.988,124.082 265.662,119.735 264.165,124.031 259.613,123.947 263.25,126.691 261.761,131.012 265.495,128.394 "
   id="polygon160"
   style="fill:#00529f;fill-opacity:1;stroke:none"
   transform="translate(-9,-9)" />
<rect
   id="_x3C_Slice_x3E__2_"
   width="288"
   height="288"
   x="-9"
   y="-9"
   style="fill:none" />
</svg>